<?xml version="1.0" encoding="utf-8" standalone="no"?>
<!DOCTYPE svg PUBLIC "-//W3C//DTD SVG 1.1//EN"
  "http://www.w3.org/Graphics/SVG/1.1/DTD/svg11.dtd">
<!-- Created with matplotlib (http://matplotlib.org/) -->
<svg height="72pt" version="1.1" viewBox="0 0 576 72" width="576pt" xmlns="http://www.w3.org/2000/svg" xmlns:xlink="http://www.w3.org/1999/xlink">
 <defs>
  <style type="text/css">
*{stroke-linecap:butt;stroke-linejoin:round;stroke-miterlimit:100000;}
  </style>
 </defs>
 <g id="figure_1">
  <g id="axes_1">
   <g id="patch_1">
    <path d="M 72 64.8 
L 518.4 64.8 
L 518.4 7.2 
L 72 7.2 
z
" style="fill:#ffffff;"/>
   </g>
   <g id="patch_2">
    <path clip-path="url(#p6c88b78968)" d="M 72.744 64.8 
L 74.232 64.8 
L 74.232 45.6 
L 72.744 45.6 
z
"/>
   </g>
   <g id="patch_3">
    <path clip-path="url(#p6c88b78968)" d="M 74.232 64.8 
L 74.3064 64.8 
L 74.3064 45.6 
L 74.232 45.6 
z
" style="fill:#ff0000;opacity:0.01;"/>
   </g>
   <g id="patch_4">
    <path clip-path="url(#p6c88b78968)" d="M 74.3064 64.8 
L 74.4552 64.8 
L 74.4552 45.6 
L 74.3064 45.6 
z
" style="fill:#ff0000;opacity:0.01;"/>
   </g>
   <g id="patch_5">
    <path clip-path="url(#p6c88b78968)" d="M 74.4552 64.8 
L 74.6784 64.8 
L 74.6784 45.6 
L 74.4552 45.6 
z
" style="fill:#ff0000;opacity:0.01;"/>
   </g>
   <g id="patch_6">
    <path clip-path="url(#p6c88b78968)" d="M 74.6784 64.8 
L 74.976 64.8 
L 74.976 45.6 
L 74.6784 45.6 
z
" style="fill:#ff0000;opacity:0.01;"/>
   </g>
   <g id="patch_7">
    <path clip-path="url(#p6c88b78968)" d="M 74.976 64.8 
L 75.348 64.8 
L 75.348 45.6 
L 74.976 45.6 
z
" style="fill:#ff0000;opacity:0.01;"/>
   </g>
   <g id="patch_8">
    <path clip-path="url(#p6c88b78968)" d="M 75.348 64.8 
L 75.7944 64.8 
L 75.7944 45.6 
L 75.348 45.6 
z
" style="fill:#ff0000;opacity:0.01;"/>
   </g>
   <g id="patch_9">
    <path clip-path="url(#p6c88b78968)" d="M 75.7944 64.8 
L 76.3152 64.8 
L 76.3152 45.6 
L 75.7944 45.6 
z
" style="fill:#ff0000;opacity:0.01;"/>
   </g>
   <g id="patch_10">
    <path clip-path="url(#p6c88b78968)" d="M 76.3152 64.8 
L 76.9104 64.8 
L 76.9104 45.6 
L 76.3152 45.6 
z
" style="fill:#ff0000;opacity:0.01;"/>
   </g>
   <g id="patch_11">
    <path clip-path="url(#p6c88b78968)" d="M 76.9104 64.8 
L 77.58 64.8 
L 77.58 45.6 
L 76.9104 45.6 
z
" style="fill:#ff0000;opacity:0.01;"/>
   </g>
   <g id="patch_12">
    <path clip-path="url(#p6c88b78968)" d="M 77.58 64.8 
L 78.324 64.8 
L 78.324 45.6 
L 77.58 45.6 
z
" style="fill:#ff0000;opacity:0.01;"/>
   </g>
   <g id="patch_13">
    <path clip-path="url(#p6c88b78968)" d="M 78.324 64.8 
L 79.1424 64.8 
L 79.1424 45.6 
L 78.324 45.6 
z
" style="fill:#ff0000;opacity:0.61;"/>
   </g>
   <g id="patch_14">
    <path clip-path="url(#p6c88b78968)" d="M 79.1424 64.8 
L 80.0352 64.8 
L 80.0352 45.6 
L 79.1424 45.6 
z
" style="fill:#ff0000;opacity:0.01;"/>
   </g>
   <g id="patch_15">
    <path clip-path="url(#p6c88b78968)" d="M 80.0352 64.8 
L 81.0024 64.8 
L 81.0024 45.6 
L 80.0352 45.6 
z
" style="fill:#ff0000;opacity:0.01;"/>
   </g>
   <g id="patch_16">
    <path clip-path="url(#p6c88b78968)" d="M 81.0024 64.8 
L 82.044 64.8 
L 82.044 45.6 
L 81.0024 45.6 
z
" style="fill:#ff0000;opacity:0.01;"/>
   </g>
   <g id="patch_17">
    <path clip-path="url(#p6c88b78968)" d="M 82.044 64.8 
L 83.16 64.8 
L 83.16 45.6 
L 82.044 45.6 
z
" style="fill:#ff0000;opacity:0.01;"/>
   </g>
   <g id="patch_18">
    <path clip-path="url(#p6c88b78968)" d="M 83.16 64.8 
L 84.3504 64.8 
L 84.3504 45.6 
L 83.16 45.6 
z
" style="fill:#ff0000;opacity:0.01;"/>
   </g>
   <g id="patch_19">
    <path clip-path="url(#p6c88b78968)" d="M 84.3504 64.8 
L 85.6152 64.8 
L 85.6152 45.6 
L 84.3504 45.6 
z
" style="fill:#ff0000;opacity:0.01;"/>
   </g>
   <g id="patch_20">
    <path clip-path="url(#p6c88b78968)" d="M 85.6152 64.8 
L 86.9544 64.8 
L 86.9544 45.6 
L 85.6152 45.6 
z
" style="fill:#ff0000;opacity:0.01;"/>
   </g>
   <g id="patch_21">
    <path clip-path="url(#p6c88b78968)" d="M 86.9544 64.8 
L 88.368 64.8 
L 88.368 45.6 
L 86.9544 45.6 
z
" style="fill:#ff0000;opacity:0.01;"/>
   </g>
   <g id="patch_22">
    <path clip-path="url(#p6c88b78968)" d="M 88.368 64.8 
L 89.856 64.8 
L 89.856 45.6 
L 88.368 45.6 
z
" style="fill:#ff0000;opacity:0.01;"/>
   </g>
   <g id="patch_23">
    <path clip-path="url(#p6c88b78968)" d="M 89.856 64.8 
L 91.4184 64.8 
L 91.4184 45.6 
L 89.856 45.6 
z
" style="fill:#ff0000;opacity:0.01;"/>
   </g>
   <g id="patch_24">
    <path clip-path="url(#p6c88b78968)" d="M 91.4184 64.8 
L 93.0552 64.8 
L 93.0552 45.6 
L 91.4184 45.6 
z
" style="fill:#ff0000;opacity:0.01;"/>
   </g>
   <g id="patch_25">
    <path clip-path="url(#p6c88b78968)" d="M 93.0552 64.8 
L 94.7664 64.8 
L 94.7664 45.6 
L 93.0552 45.6 
z
" style="fill:#ff0000;opacity:0.01;"/>
   </g>
   <g id="patch_26">
    <path clip-path="url(#p6c88b78968)" d="M 94.7664 64.8 
L 96.552 64.8 
L 96.552 45.6 
L 94.7664 45.6 
z
" style="fill:#ff0000;opacity:0.01;"/>
   </g>
   <g id="patch_27">
    <path clip-path="url(#p6c88b78968)" d="M 96.552 64.8 
L 98.412 64.8 
L 98.412 45.6 
L 96.552 45.6 
z
" style="fill:#ff0000;opacity:0.01;"/>
   </g>
   <g id="patch_28">
    <path clip-path="url(#p6c88b78968)" d="M 98.412 64.8 
L 100.3464 64.8 
L 100.3464 45.6 
L 98.412 45.6 
z
" style="fill:#ff0000;opacity:0.01;"/>
   </g>
   <g id="patch_29">
    <path clip-path="url(#p6c88b78968)" d="M 100.3464 64.8 
L 102.3552 64.8 
L 102.3552 45.6 
L 100.3464 45.6 
z
" style="fill:#ff0000;opacity:0.31;"/>
   </g>
   <g id="patch_30">
    <path clip-path="url(#p6c88b78968)" d="M 102.3552 64.8 
L 104.4384 64.8 
L 104.4384 45.6 
L 102.3552 45.6 
z
" style="fill:#ff0000;opacity:0.01;"/>
   </g>
   <g id="patch_31">
    <path clip-path="url(#p6c88b78968)" d="M 104.4384 64.8 
L 106.596 64.8 
L 106.596 45.6 
L 104.4384 45.6 
z
" style="fill:#ff0000;opacity:0.01;"/>
   </g>
   <g id="patch_32">
    <path clip-path="url(#p6c88b78968)" d="M 106.596 64.8 
L 108.828 64.8 
L 108.828 45.6 
L 106.596 45.6 
z
" style="fill:#ff0000;opacity:0.01;"/>
   </g>
   <g id="patch_33">
    <path clip-path="url(#p6c88b78968)" d="M 108.828 64.8 
L 111.1344 64.8 
L 111.1344 45.6 
L 108.828 45.6 
z
" style="fill:#ff0000;opacity:0.01;"/>
   </g>
   <g id="patch_34">
    <path clip-path="url(#p6c88b78968)" d="M 111.1344 64.8 
L 113.5152 64.8 
L 113.5152 45.6 
L 111.1344 45.6 
z
" style="fill:#ff0000;opacity:0.01;"/>
   </g>
   <g id="patch_35">
    <path clip-path="url(#p6c88b78968)" d="M 113.5152 64.8 
L 115.9704 64.8 
L 115.9704 45.6 
L 113.5152 45.6 
z
" style="fill:#ff0000;opacity:0.01;"/>
   </g>
   <g id="patch_36">
    <path clip-path="url(#p6c88b78968)" d="M 115.9704 64.8 
L 118.5 64.8 
L 118.5 45.6 
L 115.9704 45.6 
z
" style="fill:#ff0000;opacity:0.61;"/>
   </g>
   <g id="patch_37">
    <path clip-path="url(#p6c88b78968)" d="M 118.5 64.8 
L 121.104 64.8 
L 121.104 45.6 
L 118.5 45.6 
z
" style="fill:#ff0000;opacity:0.61;"/>
   </g>
   <g id="patch_38">
    <path clip-path="url(#p6c88b78968)" d="M 121.104 64.8 
L 123.7824 64.8 
L 123.7824 45.6 
L 121.104 45.6 
z
" style="fill:#ff0000;opacity:0.31;"/>
   </g>
   <g id="patch_39">
    <path clip-path="url(#p6c88b78968)" d="M 123.7824 64.8 
L 126.5352 64.8 
L 126.5352 45.6 
L 123.7824 45.6 
z
" style="fill:#ff0000;opacity:0.31;"/>
   </g>
   <g id="patch_40">
    <path clip-path="url(#p6c88b78968)" d="M 126.5352 64.8 
L 129.3624 64.8 
L 129.3624 45.6 
L 126.5352 45.6 
z
" style="fill:#ff0000;opacity:0.01;"/>
   </g>
   <g id="patch_41">
    <path clip-path="url(#p6c88b78968)" d="M 129.3624 64.8 
L 132.264 64.8 
L 132.264 45.6 
L 129.3624 45.6 
z
" style="fill:#ff0000;opacity:0.01;"/>
   </g>
   <g id="patch_42">
    <path clip-path="url(#p6c88b78968)" d="M 132.264 64.8 
L 135.24 64.8 
L 135.24 45.6 
L 132.264 45.6 
z
" style="fill:#ff0000;opacity:0.01;"/>
   </g>
   <g id="patch_43">
    <path clip-path="url(#p6c88b78968)" d="M 135.24 64.8 
L 138.2904 64.8 
L 138.2904 45.6 
L 135.24 45.6 
z
" style="fill:#ff0000;opacity:0.01;"/>
   </g>
   <g id="patch_44">
    <path clip-path="url(#p6c88b78968)" d="M 138.2904 64.8 
L 141.4152 64.8 
L 141.4152 45.6 
L 138.2904 45.6 
z
" style="fill:#ff0000;opacity:0.01;"/>
   </g>
   <g id="patch_45">
    <path clip-path="url(#p6c88b78968)" d="M 141.4152 64.8 
L 144.6144 64.8 
L 144.6144 45.6 
L 141.4152 45.6 
z
" style="fill:#ff0000;opacity:0.01;"/>
   </g>
   <g id="patch_46">
    <path clip-path="url(#p6c88b78968)" d="M 144.6144 64.8 
L 147.888 64.8 
L 147.888 45.6 
L 144.6144 45.6 
z
" style="fill:#ff0000;opacity:0.01;"/>
   </g>
   <g id="patch_47">
    <path clip-path="url(#p6c88b78968)" d="M 147.888 64.8 
L 151.236 64.8 
L 151.236 45.6 
L 147.888 45.6 
z
" style="fill:#ff0000;opacity:0.01;"/>
   </g>
   <g id="patch_48">
    <path clip-path="url(#p6c88b78968)" d="M 151.236 64.8 
L 154.6584 64.8 
L 154.6584 45.6 
L 151.236 45.6 
z
" style="fill:#ff0000;opacity:0.01;"/>
   </g>
   <g id="patch_49">
    <path clip-path="url(#p6c88b78968)" d="M 154.6584 64.8 
L 158.1552 64.8 
L 158.1552 45.6 
L 154.6584 45.6 
z
" style="fill:#ff0000;opacity:0.31;"/>
   </g>
   <g id="patch_50">
    <path clip-path="url(#p6c88b78968)" d="M 158.1552 64.8 
L 161.7264 64.8 
L 161.7264 45.6 
L 158.1552 45.6 
z
" style="fill:#ff0000;opacity:0.01;"/>
   </g>
   <g id="patch_51">
    <path clip-path="url(#p6c88b78968)" d="M 161.7264 64.8 
L 165.372 64.8 
L 165.372 45.6 
L 161.7264 45.6 
z
" style="fill:#ff0000;opacity:0.01;"/>
   </g>
   <g id="patch_52">
    <path clip-path="url(#p6c88b78968)" d="M 165.372 64.8 
L 169.092 64.8 
L 169.092 45.6 
L 165.372 45.6 
z
" style="fill:#ff0000;opacity:0.01;"/>
   </g>
   <g id="patch_53">
    <path clip-path="url(#p6c88b78968)" d="M 169.092 64.8 
L 172.8864 64.8 
L 172.8864 45.6 
L 169.092 45.6 
z
" style="fill:#ff0000;opacity:0.91;"/>
   </g>
   <g id="patch_54">
    <path clip-path="url(#p6c88b78968)" d="M 172.8864 64.8 
L 176.7552 64.8 
L 176.7552 45.6 
L 172.8864 45.6 
z
" style="fill:#ff0000;opacity:0.01;"/>
   </g>
   <g id="patch_55">
    <path clip-path="url(#p6c88b78968)" d="M 176.7552 64.8 
L 180.6984 64.8 
L 180.6984 45.6 
L 176.7552 45.6 
z
" style="fill:#ff0000;opacity:0.01;"/>
   </g>
   <g id="patch_56">
    <path clip-path="url(#p6c88b78968)" d="M 180.6984 64.8 
L 184.716 64.8 
L 184.716 45.6 
L 180.6984 45.6 
z
" style="fill:#ff0000;opacity:0.01;"/>
   </g>
   <g id="patch_57">
    <path clip-path="url(#p6c88b78968)" d="M 184.716 64.8 
L 188.808 64.8 
L 188.808 45.6 
L 184.716 45.6 
z
" style="fill:#ff0000;opacity:0.01;"/>
   </g>
   <g id="patch_58">
    <path clip-path="url(#p6c88b78968)" d="M 188.808 64.8 
L 192.9744 64.8 
L 192.9744 45.6 
L 188.808 45.6 
z
" style="fill:#ff0000;opacity:0.01;"/>
   </g>
   <g id="patch_59">
    <path clip-path="url(#p6c88b78968)" d="M 192.9744 64.8 
L 197.2152 64.8 
L 197.2152 45.6 
L 192.9744 45.6 
z
" style="fill:#ff0000;opacity:0.01;"/>
   </g>
   <g id="patch_60">
    <path clip-path="url(#p6c88b78968)" d="M 197.2152 64.8 
L 201.5304 64.8 
L 201.5304 45.6 
L 197.2152 45.6 
z
" style="fill:#ff0000;opacity:0.31;"/>
   </g>
   <g id="patch_61">
    <path clip-path="url(#p6c88b78968)" d="M 201.5304 64.8 
L 205.92 64.8 
L 205.92 45.6 
L 201.5304 45.6 
z
" style="fill:#ff0000;opacity:0.31;"/>
   </g>
   <g id="patch_62">
    <path clip-path="url(#p6c88b78968)" d="M 205.92 64.8 
L 210.384 64.8 
L 210.384 45.6 
L 205.92 45.6 
z
" style="fill:#ff0000;opacity:0.01;"/>
   </g>
   <g id="patch_63">
    <path clip-path="url(#p6c88b78968)" d="M 210.384 64.8 
L 214.9224 64.8 
L 214.9224 45.6 
L 210.384 45.6 
z
" style="fill:#ff0000;opacity:0.01;"/>
   </g>
   <g id="patch_64">
    <path clip-path="url(#p6c88b78968)" d="M 214.9224 64.8 
L 219.5352 64.8 
L 219.5352 45.6 
L 214.9224 45.6 
z
" style="fill:#ff0000;opacity:0.01;"/>
   </g>
   <g id="patch_65">
    <path clip-path="url(#p6c88b78968)" d="M 219.5352 64.8 
L 224.2224 64.8 
L 224.2224 45.6 
L 219.5352 45.6 
z
" style="fill:#ff0000;opacity:0.01;"/>
   </g>
   <g id="patch_66">
    <path clip-path="url(#p6c88b78968)" d="M 224.2224 64.8 
L 228.984 64.8 
L 228.984 45.6 
L 224.2224 45.6 
z
" style="fill:#ff0000;opacity:0.01;"/>
   </g>
   <g id="patch_67">
    <path clip-path="url(#p6c88b78968)" d="M 228.984 64.8 
L 233.82 64.8 
L 233.82 45.6 
L 228.984 45.6 
z
" style="fill:#ff0000;opacity:0.01;"/>
   </g>
   <g id="patch_68">
    <path clip-path="url(#p6c88b78968)" d="M 233.82 64.8 
L 238.7304 64.8 
L 238.7304 45.6 
L 233.82 45.6 
z
" style="fill:#ff0000;opacity:0.31;"/>
   </g>
   <g id="patch_69">
    <path clip-path="url(#p6c88b78968)" d="M 238.7304 64.8 
L 243.7152 64.8 
L 243.7152 45.6 
L 238.7304 45.6 
z
" style="fill:#ff0000;opacity:0.01;"/>
   </g>
   <g id="patch_70">
    <path clip-path="url(#p6c88b78968)" d="M 243.7152 64.8 
L 248.7744 64.8 
L 248.7744 45.6 
L 243.7152 45.6 
z
" style="fill:#ff0000;opacity:0.01;"/>
   </g>
   <g id="patch_71">
    <path clip-path="url(#p6c88b78968)" d="M 248.7744 64.8 
L 253.908 64.8 
L 253.908 45.6 
L 248.7744 45.6 
z
" style="fill:#ff0000;opacity:0.01;"/>
   </g>
   <g id="patch_72">
    <path clip-path="url(#p6c88b78968)" d="M 253.908 64.8 
L 259.116 64.8 
L 259.116 45.6 
L 253.908 45.6 
z
" style="fill:#ff0000;opacity:0.01;"/>
   </g>
   <g id="patch_73">
    <path clip-path="url(#p6c88b78968)" d="M 259.116 64.8 
L 264.3984 64.8 
L 264.3984 45.6 
L 259.116 45.6 
z
" style="fill:#ff0000;opacity:0.01;"/>
   </g>
   <g id="patch_74">
    <path clip-path="url(#p6c88b78968)" d="M 264.3984 64.8 
L 269.7552 64.8 
L 269.7552 45.6 
L 264.3984 45.6 
z
" style="fill:#ff0000;opacity:0.01;"/>
   </g>
   <g id="patch_75">
    <path clip-path="url(#p6c88b78968)" d="M 269.7552 64.8 
L 275.1864 64.8 
L 275.1864 45.6 
L 269.7552 45.6 
z
" style="fill:#ff0000;opacity:0.01;"/>
   </g>
   <g id="patch_76">
    <path clip-path="url(#p6c88b78968)" d="M 275.1864 64.8 
L 280.692 64.8 
L 280.692 45.6 
L 275.1864 45.6 
z
" style="fill:#ff0000;opacity:0.31;"/>
   </g>
   <g id="patch_77">
    <path clip-path="url(#p6c88b78968)" d="M 280.692 64.8 
L 286.272 64.8 
L 286.272 45.6 
L 280.692 45.6 
z
" style="fill:#ff0000;opacity:0.01;"/>
   </g>
   <g id="patch_78">
    <path clip-path="url(#p6c88b78968)" d="M 286.272 64.8 
L 291.9264 64.8 
L 291.9264 45.6 
L 286.272 45.6 
z
" style="fill:#ff0000;opacity:0.01;"/>
   </g>
   <g id="patch_79">
    <path clip-path="url(#p6c88b78968)" d="M 291.9264 64.8 
L 297.6552 64.8 
L 297.6552 45.6 
L 291.9264 45.6 
z
" style="fill:#ff0000;opacity:0.01;"/>
   </g>
   <g id="patch_80">
    <path clip-path="url(#p6c88b78968)" d="M 297.6552 64.8 
L 303.4584 64.8 
L 303.4584 45.6 
L 297.6552 45.6 
z
" style="fill:#ff0000;opacity:0.01;"/>
   </g>
   <g id="patch_81">
    <path clip-path="url(#p6c88b78968)" d="M 303.4584 64.8 
L 309.336 64.8 
L 309.336 45.6 
L 303.4584 45.6 
z
" style="fill:#ff0000;opacity:0.01;"/>
   </g>
   <g id="patch_82">
    <path clip-path="url(#p6c88b78968)" d="M 309.336 64.8 
L 315.288 64.8 
L 315.288 45.6 
L 309.336 45.6 
z
" style="fill:#ff0000;opacity:0.01;"/>
   </g>
   <g id="patch_83">
    <path clip-path="url(#p6c88b78968)" d="M 315.288 64.8 
L 321.3144 64.8 
L 321.3144 45.6 
L 315.288 45.6 
z
" style="fill:#ff0000;opacity:0.01;"/>
   </g>
   <g id="patch_84">
    <path clip-path="url(#p6c88b78968)" d="M 321.3144 64.8 
L 327.4152 64.8 
L 327.4152 45.6 
L 321.3144 45.6 
z
" style="fill:#ff0000;opacity:0.01;"/>
   </g>
   <g id="patch_85">
    <path clip-path="url(#p6c88b78968)" d="M 327.4152 64.8 
L 333.5904 64.8 
L 333.5904 45.6 
L 327.4152 45.6 
z
" style="fill:#ff0000;opacity:0.01;"/>
   </g>
   <g id="patch_86">
    <path clip-path="url(#p6c88b78968)" d="M 333.5904 64.8 
L 339.84 64.8 
L 339.84 45.6 
L 333.5904 45.6 
z
" style="fill:#ff0000;opacity:0.01;"/>
   </g>
   <g id="patch_87">
    <path clip-path="url(#p6c88b78968)" d="M 339.84 64.8 
L 346.164 64.8 
L 346.164 45.6 
L 339.84 45.6 
z
" style="fill:#ff0000;opacity:0.01;"/>
   </g>
   <g id="patch_88">
    <path clip-path="url(#p6c88b78968)" d="M 346.164 64.8 
L 352.5624 64.8 
L 352.5624 45.6 
L 346.164 45.6 
z
" style="fill:#ff0000;opacity:0.01;"/>
   </g>
   <g id="patch_89">
    <path clip-path="url(#p6c88b78968)" d="M 352.5624 64.8 
L 359.0352 64.8 
L 359.0352 45.6 
L 352.5624 45.6 
z
" style="fill:#ff0000;opacity:0.01;"/>
   </g>
   <g id="patch_90">
    <path clip-path="url(#p6c88b78968)" d="M 359.0352 64.8 
L 365.5824 64.8 
L 365.5824 45.6 
L 359.0352 45.6 
z
" style="fill:#ff0000;opacity:0.01;"/>
   </g>
   <g id="patch_91">
    <path clip-path="url(#p6c88b78968)" d="M 365.5824 64.8 
L 372.204 64.8 
L 372.204 45.6 
L 365.5824 45.6 
z
" style="fill:#ff0000;opacity:0.01;"/>
   </g>
   <g id="patch_92">
    <path clip-path="url(#p6c88b78968)" d="M 372.204 64.8 
L 378.9 64.8 
L 378.9 45.6 
L 372.204 45.6 
z
" style="fill:#ff0000;opacity:0.01;"/>
   </g>
   <g id="patch_93">
    <path clip-path="url(#p6c88b78968)" d="M 378.9 64.8 
L 385.6704 64.8 
L 385.6704 45.6 
L 378.9 45.6 
z
" style="fill:#ff0000;opacity:0.01;"/>
   </g>
   <g id="patch_94">
    <path clip-path="url(#p6c88b78968)" d="M 385.6704 64.8 
L 392.5152 64.8 
L 392.5152 45.6 
L 385.6704 45.6 
z
" style="fill:#ff0000;opacity:0.01;"/>
   </g>
   <g id="patch_95">
    <path clip-path="url(#p6c88b78968)" d="M 392.5152 64.8 
L 399.4344 64.8 
L 399.4344 45.6 
L 392.5152 45.6 
z
" style="fill:#ff0000;opacity:0.01;"/>
   </g>
   <g id="patch_96">
    <path clip-path="url(#p6c88b78968)" d="M 399.4344 64.8 
L 406.428 64.8 
L 406.428 45.6 
L 399.4344 45.6 
z
" style="fill:#ff0000;opacity:0.01;"/>
   </g>
   <g id="patch_97">
    <path clip-path="url(#p6c88b78968)" d="M 406.428 64.8 
L 413.496 64.8 
L 413.496 45.6 
L 406.428 45.6 
z
" style="fill:#ff0000;opacity:0.31;"/>
   </g>
   <g id="patch_98">
    <path clip-path="url(#p6c88b78968)" d="M 413.496 64.8 
L 420.6384 64.8 
L 420.6384 45.6 
L 413.496 45.6 
z
" style="fill:#ff0000;opacity:0.31;"/>
   </g>
   <g id="patch_99">
    <path clip-path="url(#p6c88b78968)" d="M 420.6384 64.8 
L 427.8552 64.8 
L 427.8552 45.6 
L 420.6384 45.6 
z
" style="fill:#ff0000;opacity:0.01;"/>
   </g>
   <g id="patch_100">
    <path clip-path="url(#p6c88b78968)" d="M 427.8552 64.8 
L 435.1464 64.8 
L 435.1464 45.6 
L 427.8552 45.6 
z
" style="fill:#ff0000;opacity:0.01;"/>
   </g>
   <g id="patch_101">
    <path clip-path="url(#p6c88b78968)" d="M 435.1464 64.8 
L 442.512 64.8 
L 442.512 45.6 
L 435.1464 45.6 
z
" style="fill:#ff0000;opacity:0.01;"/>
   </g>
   <g id="patch_102">
    <path clip-path="url(#p6c88b78968)" d="M 442.512 64.8 
L 449.952 64.8 
L 449.952 45.6 
L 442.512 45.6 
z
" style="fill:#ff0000;opacity:0.01;"/>
   </g>
   <g id="patch_103">
    <path clip-path="url(#p6c88b78968)" d="M 449.952 64.8 
L 451.44 64.8 
L 451.44 45.6 
L 449.952 45.6 
z
"/>
   </g>
   <g id="patch_104">
    <path clip-path="url(#p6c88b78968)" d="M 72.744 45.6 
L 74.232 45.6 
L 74.232 26.4 
L 72.744 26.4 
z
"/>
   </g>
   <g id="patch_105">
    <path clip-path="url(#p6c88b78968)" d="M 74.232 45.6 
L 74.3064 45.6 
L 74.3064 26.4 
L 74.232 26.4 
z
" style="fill:#0000ff;opacity:0.01;"/>
   </g>
   <g id="patch_106">
    <path clip-path="url(#p6c88b78968)" d="M 74.3064 45.6 
L 74.4552 45.6 
L 74.4552 26.4 
L 74.3064 26.4 
z
" style="fill:#0000ff;opacity:0.01;"/>
   </g>
   <g id="patch_107">
    <path clip-path="url(#p6c88b78968)" d="M 74.4552 45.6 
L 74.6784 45.6 
L 74.6784 26.4 
L 74.4552 26.4 
z
" style="fill:#0000ff;opacity:0.01;"/>
   </g>
   <g id="patch_108">
    <path clip-path="url(#p6c88b78968)" d="M 74.6784 45.6 
L 74.976 45.6 
L 74.976 26.4 
L 74.6784 26.4 
z
" style="fill:#0000ff;opacity:0.01;"/>
   </g>
   <g id="patch_109">
    <path clip-path="url(#p6c88b78968)" d="M 74.976 45.6 
L 75.348 45.6 
L 75.348 26.4 
L 74.976 26.4 
z
" style="fill:#0000ff;opacity:0.01;"/>
   </g>
   <g id="patch_110">
    <path clip-path="url(#p6c88b78968)" d="M 75.348 45.6 
L 75.7944 45.6 
L 75.7944 26.4 
L 75.348 26.4 
z
" style="fill:#0000ff;opacity:0.1225;"/>
   </g>
   <g id="patch_111">
    <path clip-path="url(#p6c88b78968)" d="M 75.7944 45.6 
L 76.3152 45.6 
L 76.3152 26.4 
L 75.7944 26.4 
z
" style="fill:#0000ff;opacity:0.235;"/>
   </g>
   <g id="patch_112">
    <path clip-path="url(#p6c88b78968)" d="M 76.3152 45.6 
L 76.9104 45.6 
L 76.9104 26.4 
L 76.3152 26.4 
z
" style="fill:#0000ff;opacity:0.3475;"/>
   </g>
   <g id="patch_113">
    <path clip-path="url(#p6c88b78968)" d="M 76.9104 45.6 
L 77.58 45.6 
L 77.58 26.4 
L 76.9104 26.4 
z
" style="fill:#0000ff;opacity:0.3475;"/>
   </g>
   <g id="patch_114">
    <path clip-path="url(#p6c88b78968)" d="M 77.58 45.6 
L 78.324 45.6 
L 78.324 26.4 
L 77.58 26.4 
z
" style="fill:#0000ff;opacity:0.46;"/>
   </g>
   <g id="patch_115">
    <path clip-path="url(#p6c88b78968)" d="M 78.324 45.6 
L 79.1424 45.6 
L 79.1424 26.4 
L 78.324 26.4 
z
" style="fill:#0000ff;opacity:0.46;"/>
   </g>
   <g id="patch_116">
    <path clip-path="url(#p6c88b78968)" d="M 79.1424 45.6 
L 80.0352 45.6 
L 80.0352 26.4 
L 79.1424 26.4 
z
" style="fill:#0000ff;opacity:0.235;"/>
   </g>
   <g id="patch_117">
    <path clip-path="url(#p6c88b78968)" d="M 80.0352 45.6 
L 81.0024 45.6 
L 81.0024 26.4 
L 80.0352 26.4 
z
" style="fill:#0000ff;opacity:0.3475;"/>
   </g>
   <g id="patch_118">
    <path clip-path="url(#p6c88b78968)" d="M 81.0024 45.6 
L 82.044 45.6 
L 82.044 26.4 
L 81.0024 26.4 
z
" style="fill:#0000ff;opacity:0.46;"/>
   </g>
   <g id="patch_119">
    <path clip-path="url(#p6c88b78968)" d="M 82.044 45.6 
L 83.16 45.6 
L 83.16 26.4 
L 82.044 26.4 
z
" style="fill:#0000ff;opacity:0.46;"/>
   </g>
   <g id="patch_120">
    <path clip-path="url(#p6c88b78968)" d="M 83.16 45.6 
L 84.3504 45.6 
L 84.3504 26.4 
L 83.16 26.4 
z
" style="fill:#0000ff;opacity:0.46;"/>
   </g>
   <g id="patch_121">
    <path clip-path="url(#p6c88b78968)" d="M 84.3504 45.6 
L 85.6152 45.6 
L 85.6152 26.4 
L 84.3504 26.4 
z
" style="fill:#0000ff;opacity:0.46;"/>
   </g>
   <g id="patch_122">
    <path clip-path="url(#p6c88b78968)" d="M 85.6152 45.6 
L 86.9544 45.6 
L 86.9544 26.4 
L 85.6152 26.4 
z
" style="fill:#0000ff;opacity:0.46;"/>
   </g>
   <g id="patch_123">
    <path clip-path="url(#p6c88b78968)" d="M 86.9544 45.6 
L 88.368 45.6 
L 88.368 26.4 
L 86.9544 26.4 
z
" style="fill:#0000ff;opacity:0.46;"/>
   </g>
   <g id="patch_124">
    <path clip-path="url(#p6c88b78968)" d="M 88.368 45.6 
L 89.856 45.6 
L 89.856 26.4 
L 88.368 26.4 
z
" style="fill:#0000ff;opacity:0.46;"/>
   </g>
   <g id="patch_125">
    <path clip-path="url(#p6c88b78968)" d="M 89.856 45.6 
L 91.4184 45.6 
L 91.4184 26.4 
L 89.856 26.4 
z
" style="fill:#0000ff;opacity:0.46;"/>
   </g>
   <g id="patch_126">
    <path clip-path="url(#p6c88b78968)" d="M 91.4184 45.6 
L 93.0552 45.6 
L 93.0552 26.4 
L 91.4184 26.4 
z
" style="fill:#0000ff;opacity:0.5725;"/>
   </g>
   <g id="patch_127">
    <path clip-path="url(#p6c88b78968)" d="M 93.0552 45.6 
L 94.7664 45.6 
L 94.7664 26.4 
L 93.0552 26.4 
z
" style="fill:#0000ff;opacity:0.5725;"/>
   </g>
   <g id="patch_128">
    <path clip-path="url(#p6c88b78968)" d="M 94.7664 45.6 
L 96.552 45.6 
L 96.552 26.4 
L 94.7664 26.4 
z
" style="fill:#0000ff;opacity:0.685;"/>
   </g>
   <g id="patch_129">
    <path clip-path="url(#p6c88b78968)" d="M 96.552 45.6 
L 98.412 45.6 
L 98.412 26.4 
L 96.552 26.4 
z
" style="fill:#0000ff;opacity:0.685;"/>
   </g>
   <g id="patch_130">
    <path clip-path="url(#p6c88b78968)" d="M 98.412 45.6 
L 100.3464 45.6 
L 100.3464 26.4 
L 98.412 26.4 
z
" style="fill:#0000ff;opacity:0.685;"/>
   </g>
   <g id="patch_131">
    <path clip-path="url(#p6c88b78968)" d="M 100.3464 45.6 
L 102.3552 45.6 
L 102.3552 26.4 
L 100.3464 26.4 
z
" style="fill:#0000ff;opacity:0.685;"/>
   </g>
   <g id="patch_132">
    <path clip-path="url(#p6c88b78968)" d="M 102.3552 45.6 
L 104.4384 45.6 
L 104.4384 26.4 
L 102.3552 26.4 
z
" style="fill:#0000ff;opacity:0.685;"/>
   </g>
   <g id="patch_133">
    <path clip-path="url(#p6c88b78968)" d="M 104.4384 45.6 
L 106.596 45.6 
L 106.596 26.4 
L 104.4384 26.4 
z
" style="fill:#0000ff;opacity:0.685;"/>
   </g>
   <g id="patch_134">
    <path clip-path="url(#p6c88b78968)" d="M 106.596 45.6 
L 108.828 45.6 
L 108.828 26.4 
L 106.596 26.4 
z
" style="fill:#0000ff;opacity:0.685;"/>
   </g>
   <g id="patch_135">
    <path clip-path="url(#p6c88b78968)" d="M 108.828 45.6 
L 111.1344 45.6 
L 111.1344 26.4 
L 108.828 26.4 
z
" style="fill:#0000ff;opacity:0.7975;"/>
   </g>
   <g id="patch_136">
    <path clip-path="url(#p6c88b78968)" d="M 111.1344 45.6 
L 113.5152 45.6 
L 113.5152 26.4 
L 111.1344 26.4 
z
" style="fill:#0000ff;opacity:0.7975;"/>
   </g>
   <g id="patch_137">
    <path clip-path="url(#p6c88b78968)" d="M 113.5152 45.6 
L 115.9704 45.6 
L 115.9704 26.4 
L 113.5152 26.4 
z
" style="fill:#0000ff;opacity:0.91;"/>
   </g>
   <g id="patch_138">
    <path clip-path="url(#p6c88b78968)" d="M 115.9704 45.6 
L 118.5 45.6 
L 118.5 26.4 
L 115.9704 26.4 
z
" style="fill:#0000ff;opacity:0.91;"/>
   </g>
   <g id="patch_139">
    <path clip-path="url(#p6c88b78968)" d="M 118.5 45.6 
L 121.104 45.6 
L 121.104 26.4 
L 118.5 26.4 
z
" style="fill:#0000ff;opacity:0.685;"/>
   </g>
   <g id="patch_140">
    <path clip-path="url(#p6c88b78968)" d="M 121.104 45.6 
L 123.7824 45.6 
L 123.7824 26.4 
L 121.104 26.4 
z
" style="fill:#0000ff;opacity:0.685;"/>
   </g>
   <g id="patch_141">
    <path clip-path="url(#p6c88b78968)" d="M 123.7824 45.6 
L 126.5352 45.6 
L 126.5352 26.4 
L 123.7824 26.4 
z
" style="fill:#0000ff;opacity:0.5725;"/>
   </g>
   <g id="patch_142">
    <path clip-path="url(#p6c88b78968)" d="M 126.5352 45.6 
L 129.3624 45.6 
L 129.3624 26.4 
L 126.5352 26.4 
z
" style="fill:#0000ff;opacity:0.46;"/>
   </g>
   <g id="patch_143">
    <path clip-path="url(#p6c88b78968)" d="M 129.3624 45.6 
L 132.264 45.6 
L 132.264 26.4 
L 129.3624 26.4 
z
" style="fill:#0000ff;opacity:0.46;"/>
   </g>
   <g id="patch_144">
    <path clip-path="url(#p6c88b78968)" d="M 132.264 45.6 
L 135.24 45.6 
L 135.24 26.4 
L 132.264 26.4 
z
" style="fill:#0000ff;opacity:0.46;"/>
   </g>
   <g id="patch_145">
    <path clip-path="url(#p6c88b78968)" d="M 135.24 45.6 
L 138.2904 45.6 
L 138.2904 26.4 
L 135.24 26.4 
z
" style="fill:#0000ff;opacity:0.46;"/>
   </g>
   <g id="patch_146">
    <path clip-path="url(#p6c88b78968)" d="M 138.2904 45.6 
L 141.4152 45.6 
L 141.4152 26.4 
L 138.2904 26.4 
z
" style="fill:#0000ff;opacity:0.685;"/>
   </g>
   <g id="patch_147">
    <path clip-path="url(#p6c88b78968)" d="M 141.4152 45.6 
L 144.6144 45.6 
L 144.6144 26.4 
L 141.4152 26.4 
z
" style="fill:#0000ff;opacity:0.685;"/>
   </g>
   <g id="patch_148">
    <path clip-path="url(#p6c88b78968)" d="M 144.6144 45.6 
L 147.888 45.6 
L 147.888 26.4 
L 144.6144 26.4 
z
" style="fill:#0000ff;opacity:0.7975;"/>
   </g>
   <g id="patch_149">
    <path clip-path="url(#p6c88b78968)" d="M 147.888 45.6 
L 151.236 45.6 
L 151.236 26.4 
L 147.888 26.4 
z
" style="fill:#0000ff;opacity:0.7975;"/>
   </g>
   <g id="patch_150">
    <path clip-path="url(#p6c88b78968)" d="M 151.236 45.6 
L 154.6584 45.6 
L 154.6584 26.4 
L 151.236 26.4 
z
" style="fill:#0000ff;opacity:0.7975;"/>
   </g>
   <g id="patch_151">
    <path clip-path="url(#p6c88b78968)" d="M 154.6584 45.6 
L 158.1552 45.6 
L 158.1552 26.4 
L 154.6584 26.4 
z
" style="fill:#0000ff;opacity:0.7975;"/>
   </g>
   <g id="patch_152">
    <path clip-path="url(#p6c88b78968)" d="M 158.1552 45.6 
L 161.7264 45.6 
L 161.7264 26.4 
L 158.1552 26.4 
z
" style="fill:#0000ff;opacity:0.685;"/>
   </g>
   <g id="patch_153">
    <path clip-path="url(#p6c88b78968)" d="M 161.7264 45.6 
L 165.372 45.6 
L 165.372 26.4 
L 161.7264 26.4 
z
" style="fill:#0000ff;opacity:0.685;"/>
   </g>
   <g id="patch_154">
    <path clip-path="url(#p6c88b78968)" d="M 165.372 45.6 
L 169.092 45.6 
L 169.092 26.4 
L 165.372 26.4 
z
" style="fill:#0000ff;opacity:0.685;"/>
   </g>
   <g id="patch_155">
    <path clip-path="url(#p6c88b78968)" d="M 169.092 45.6 
L 172.8864 45.6 
L 172.8864 26.4 
L 169.092 26.4 
z
" style="fill:#0000ff;opacity:0.685;"/>
   </g>
   <g id="patch_156">
    <path clip-path="url(#p6c88b78968)" d="M 172.8864 45.6 
L 176.7552 45.6 
L 176.7552 26.4 
L 172.8864 26.4 
z
" style="fill:#0000ff;opacity:0.3475;"/>
   </g>
   <g id="patch_157">
    <path clip-path="url(#p6c88b78968)" d="M 176.7552 45.6 
L 180.6984 45.6 
L 180.6984 26.4 
L 176.7552 26.4 
z
" style="fill:#0000ff;opacity:0.46;"/>
   </g>
   <g id="patch_158">
    <path clip-path="url(#p6c88b78968)" d="M 180.6984 45.6 
L 184.716 45.6 
L 184.716 26.4 
L 180.6984 26.4 
z
" style="fill:#0000ff;opacity:0.46;"/>
   </g>
   <g id="patch_159">
    <path clip-path="url(#p6c88b78968)" d="M 184.716 45.6 
L 188.808 45.6 
L 188.808 26.4 
L 184.716 26.4 
z
" style="fill:#0000ff;opacity:0.46;"/>
   </g>
   <g id="patch_160">
    <path clip-path="url(#p6c88b78968)" d="M 188.808 45.6 
L 192.9744 45.6 
L 192.9744 26.4 
L 188.808 26.4 
z
" style="fill:#0000ff;opacity:0.46;"/>
   </g>
   <g id="patch_161">
    <path clip-path="url(#p6c88b78968)" d="M 192.9744 45.6 
L 197.2152 45.6 
L 197.2152 26.4 
L 192.9744 26.4 
z
" style="fill:#0000ff;opacity:0.46;"/>
   </g>
   <g id="patch_162">
    <path clip-path="url(#p6c88b78968)" d="M 197.2152 45.6 
L 201.5304 45.6 
L 201.5304 26.4 
L 197.2152 26.4 
z
" style="fill:#0000ff;opacity:0.46;"/>
   </g>
   <g id="patch_163">
    <path clip-path="url(#p6c88b78968)" d="M 201.5304 45.6 
L 205.92 45.6 
L 205.92 26.4 
L 201.5304 26.4 
z
" style="fill:#0000ff;opacity:0.3475;"/>
   </g>
   <g id="patch_164">
    <path clip-path="url(#p6c88b78968)" d="M 205.92 45.6 
L 210.384 45.6 
L 210.384 26.4 
L 205.92 26.4 
z
" style="fill:#0000ff;opacity:0.235;"/>
   </g>
   <g id="patch_165">
    <path clip-path="url(#p6c88b78968)" d="M 210.384 45.6 
L 214.9224 45.6 
L 214.9224 26.4 
L 210.384 26.4 
z
" style="fill:#0000ff;opacity:0.235;"/>
   </g>
   <g id="patch_166">
    <path clip-path="url(#p6c88b78968)" d="M 214.9224 45.6 
L 219.5352 45.6 
L 219.5352 26.4 
L 214.9224 26.4 
z
" style="fill:#0000ff;opacity:0.235;"/>
   </g>
   <g id="patch_167">
    <path clip-path="url(#p6c88b78968)" d="M 219.5352 45.6 
L 224.2224 45.6 
L 224.2224 26.4 
L 219.5352 26.4 
z
" style="fill:#0000ff;opacity:0.235;"/>
   </g>
   <g id="patch_168">
    <path clip-path="url(#p6c88b78968)" d="M 224.2224 45.6 
L 228.984 45.6 
L 228.984 26.4 
L 224.2224 26.4 
z
" style="fill:#0000ff;opacity:0.235;"/>
   </g>
   <g id="patch_169">
    <path clip-path="url(#p6c88b78968)" d="M 228.984 45.6 
L 233.82 45.6 
L 233.82 26.4 
L 228.984 26.4 
z
" style="fill:#0000ff;opacity:0.235;"/>
   </g>
   <g id="patch_170">
    <path clip-path="url(#p6c88b78968)" d="M 233.82 45.6 
L 238.7304 45.6 
L 238.7304 26.4 
L 233.82 26.4 
z
" style="fill:#0000ff;opacity:0.235;"/>
   </g>
   <g id="patch_171">
    <path clip-path="url(#p6c88b78968)" d="M 238.7304 45.6 
L 243.7152 45.6 
L 243.7152 26.4 
L 238.7304 26.4 
z
" style="fill:#0000ff;opacity:0.1225;"/>
   </g>
   <g id="patch_172">
    <path clip-path="url(#p6c88b78968)" d="M 243.7152 45.6 
L 248.7744 45.6 
L 248.7744 26.4 
L 243.7152 26.4 
z
" style="fill:#0000ff;opacity:0.1225;"/>
   </g>
   <g id="patch_173">
    <path clip-path="url(#p6c88b78968)" d="M 248.7744 45.6 
L 253.908 45.6 
L 253.908 26.4 
L 248.7744 26.4 
z
" style="fill:#0000ff;opacity:0.3475;"/>
   </g>
   <g id="patch_174">
    <path clip-path="url(#p6c88b78968)" d="M 253.908 45.6 
L 259.116 45.6 
L 259.116 26.4 
L 253.908 26.4 
z
" style="fill:#0000ff;opacity:0.3475;"/>
   </g>
   <g id="patch_175">
    <path clip-path="url(#p6c88b78968)" d="M 259.116 45.6 
L 264.3984 45.6 
L 264.3984 26.4 
L 259.116 26.4 
z
" style="fill:#0000ff;opacity:0.3475;"/>
   </g>
   <g id="patch_176">
    <path clip-path="url(#p6c88b78968)" d="M 264.3984 45.6 
L 269.7552 45.6 
L 269.7552 26.4 
L 264.3984 26.4 
z
" style="fill:#0000ff;opacity:0.3475;"/>
   </g>
   <g id="patch_177">
    <path clip-path="url(#p6c88b78968)" d="M 269.7552 45.6 
L 275.1864 45.6 
L 275.1864 26.4 
L 269.7552 26.4 
z
" style="fill:#0000ff;opacity:0.3475;"/>
   </g>
   <g id="patch_178">
    <path clip-path="url(#p6c88b78968)" d="M 275.1864 45.6 
L 280.692 45.6 
L 280.692 26.4 
L 275.1864 26.4 
z
" style="fill:#0000ff;opacity:0.3475;"/>
   </g>
   <g id="patch_179">
    <path clip-path="url(#p6c88b78968)" d="M 280.692 45.6 
L 286.272 45.6 
L 286.272 26.4 
L 280.692 26.4 
z
" style="fill:#0000ff;opacity:0.235;"/>
   </g>
   <g id="patch_180">
    <path clip-path="url(#p6c88b78968)" d="M 286.272 45.6 
L 291.9264 45.6 
L 291.9264 26.4 
L 286.272 26.4 
z
" style="fill:#0000ff;opacity:0.235;"/>
   </g>
   <g id="patch_181">
    <path clip-path="url(#p6c88b78968)" d="M 291.9264 45.6 
L 297.6552 45.6 
L 297.6552 26.4 
L 291.9264 26.4 
z
" style="fill:#0000ff;opacity:0.235;"/>
   </g>
   <g id="patch_182">
    <path clip-path="url(#p6c88b78968)" d="M 297.6552 45.6 
L 303.4584 45.6 
L 303.4584 26.4 
L 297.6552 26.4 
z
" style="fill:#0000ff;opacity:0.235;"/>
   </g>
   <g id="patch_183">
    <path clip-path="url(#p6c88b78968)" d="M 303.4584 45.6 
L 309.336 45.6 
L 309.336 26.4 
L 303.4584 26.4 
z
" style="fill:#0000ff;opacity:0.235;"/>
   </g>
   <g id="patch_184">
    <path clip-path="url(#p6c88b78968)" d="M 309.336 45.6 
L 315.288 45.6 
L 315.288 26.4 
L 309.336 26.4 
z
" style="fill:#0000ff;opacity:0.235;"/>
   </g>
   <g id="patch_185">
    <path clip-path="url(#p6c88b78968)" d="M 315.288 45.6 
L 321.3144 45.6 
L 321.3144 26.4 
L 315.288 26.4 
z
" style="fill:#0000ff;opacity:0.235;"/>
   </g>
   <g id="patch_186">
    <path clip-path="url(#p6c88b78968)" d="M 321.3144 45.6 
L 327.4152 45.6 
L 327.4152 26.4 
L 321.3144 26.4 
z
" style="fill:#0000ff;opacity:0.235;"/>
   </g>
   <g id="patch_187">
    <path clip-path="url(#p6c88b78968)" d="M 327.4152 45.6 
L 333.5904 45.6 
L 333.5904 26.4 
L 327.4152 26.4 
z
" style="fill:#0000ff;opacity:0.235;"/>
   </g>
   <g id="patch_188">
    <path clip-path="url(#p6c88b78968)" d="M 333.5904 45.6 
L 339.84 45.6 
L 339.84 26.4 
L 333.5904 26.4 
z
" style="fill:#0000ff;opacity:0.235;"/>
   </g>
   <g id="patch_189">
    <path clip-path="url(#p6c88b78968)" d="M 339.84 45.6 
L 346.164 45.6 
L 346.164 26.4 
L 339.84 26.4 
z
" style="fill:#0000ff;opacity:0.235;"/>
   </g>
   <g id="patch_190">
    <path clip-path="url(#p6c88b78968)" d="M 346.164 45.6 
L 352.5624 45.6 
L 352.5624 26.4 
L 346.164 26.4 
z
" style="fill:#0000ff;opacity:0.235;"/>
   </g>
   <g id="patch_191">
    <path clip-path="url(#p6c88b78968)" d="M 352.5624 45.6 
L 359.0352 45.6 
L 359.0352 26.4 
L 352.5624 26.4 
z
" style="fill:#0000ff;opacity:0.235;"/>
   </g>
   <g id="patch_192">
    <path clip-path="url(#p6c88b78968)" d="M 359.0352 45.6 
L 365.5824 45.6 
L 365.5824 26.4 
L 359.0352 26.4 
z
" style="fill:#0000ff;opacity:0.235;"/>
   </g>
   <g id="patch_193">
    <path clip-path="url(#p6c88b78968)" d="M 365.5824 45.6 
L 372.204 45.6 
L 372.204 26.4 
L 365.5824 26.4 
z
" style="fill:#0000ff;opacity:0.235;"/>
   </g>
   <g id="patch_194">
    <path clip-path="url(#p6c88b78968)" d="M 372.204 45.6 
L 378.9 45.6 
L 378.9 26.4 
L 372.204 26.4 
z
" style="fill:#0000ff;opacity:0.235;"/>
   </g>
   <g id="patch_195">
    <path clip-path="url(#p6c88b78968)" d="M 378.9 45.6 
L 385.6704 45.6 
L 385.6704 26.4 
L 378.9 26.4 
z
" style="fill:#0000ff;opacity:0.235;"/>
   </g>
   <g id="patch_196">
    <path clip-path="url(#p6c88b78968)" d="M 385.6704 45.6 
L 392.5152 45.6 
L 392.5152 26.4 
L 385.6704 26.4 
z
" style="fill:#0000ff;opacity:0.235;"/>
   </g>
   <g id="patch_197">
    <path clip-path="url(#p6c88b78968)" d="M 392.5152 45.6 
L 399.4344 45.6 
L 399.4344 26.4 
L 392.5152 26.4 
z
" style="fill:#0000ff;opacity:0.235;"/>
   </g>
   <g id="patch_198">
    <path clip-path="url(#p6c88b78968)" d="M 399.4344 45.6 
L 406.428 45.6 
L 406.428 26.4 
L 399.4344 26.4 
z
" style="fill:#0000ff;opacity:0.235;"/>
   </g>
   <g id="patch_199">
    <path clip-path="url(#p6c88b78968)" d="M 406.428 45.6 
L 413.496 45.6 
L 413.496 26.4 
L 406.428 26.4 
z
" style="fill:#0000ff;opacity:0.235;"/>
   </g>
   <g id="patch_200">
    <path clip-path="url(#p6c88b78968)" d="M 413.496 45.6 
L 420.6384 45.6 
L 420.6384 26.4 
L 413.496 26.4 
z
" style="fill:#0000ff;opacity:0.1225;"/>
   </g>
   <g id="patch_201">
    <path clip-path="url(#p6c88b78968)" d="M 420.6384 45.6 
L 427.8552 45.6 
L 427.8552 26.4 
L 420.6384 26.4 
z
" style="fill:#0000ff;opacity:0.01;"/>
   </g>
   <g id="patch_202">
    <path clip-path="url(#p6c88b78968)" d="M 427.8552 45.6 
L 435.1464 45.6 
L 435.1464 26.4 
L 427.8552 26.4 
z
" style="fill:#0000ff;opacity:0.01;"/>
   </g>
   <g id="patch_203">
    <path clip-path="url(#p6c88b78968)" d="M 435.1464 45.6 
L 442.512 45.6 
L 442.512 26.4 
L 435.1464 26.4 
z
" style="fill:#0000ff;opacity:0.01;"/>
   </g>
   <g id="patch_204">
    <path clip-path="url(#p6c88b78968)" d="M 442.512 45.6 
L 449.952 45.6 
L 449.952 26.4 
L 442.512 26.4 
z
" style="fill:#0000ff;opacity:0.01;"/>
   </g>
   <g id="patch_205">
    <path clip-path="url(#p6c88b78968)" d="M 449.952 45.6 
L 451.44 45.6 
L 451.44 26.4 
L 449.952 26.4 
z
"/>
   </g>
   <g id="patch_206">
    <path clip-path="url(#p6c88b78968)" d="M 72.744 26.4 
L 74.232 26.4 
L 74.232 7.2 
L 72.744 7.2 
z
"/>
   </g>
   <g id="patch_207">
    <path clip-path="url(#p6c88b78968)" d="M 74.232 26.4 
L 74.3064 26.4 
L 74.3064 7.2 
L 74.232 7.2 
z
" style="fill:#008000;opacity:0.01;"/>
   </g>
   <g id="patch_208">
    <path clip-path="url(#p6c88b78968)" d="M 74.3064 26.4 
L 74.4552 26.4 
L 74.4552 7.2 
L 74.3064 7.2 
z
" style="fill:#008000;opacity:0.01;"/>
   </g>
   <g id="patch_209">
    <path clip-path="url(#p6c88b78968)" d="M 74.4552 26.4 
L 74.6784 26.4 
L 74.6784 7.2 
L 74.4552 7.2 
z
" style="fill:#008000;opacity:0.01;"/>
   </g>
   <g id="patch_210">
    <path clip-path="url(#p6c88b78968)" d="M 74.6784 26.4 
L 74.976 26.4 
L 74.976 7.2 
L 74.6784 7.2 
z
" style="fill:#008000;opacity:0.01;"/>
   </g>
   <g id="patch_211">
    <path clip-path="url(#p6c88b78968)" d="M 74.976 26.4 
L 75.348 26.4 
L 75.348 7.2 
L 74.976 7.2 
z
" style="fill:#008000;opacity:0.01;"/>
   </g>
   <g id="patch_212">
    <path clip-path="url(#p6c88b78968)" d="M 75.348 26.4 
L 75.7944 26.4 
L 75.7944 7.2 
L 75.348 7.2 
z
" style="fill:#008000;opacity:0.46;"/>
   </g>
   <g id="patch_213">
    <path clip-path="url(#p6c88b78968)" d="M 75.7944 26.4 
L 76.3152 26.4 
L 76.3152 7.2 
L 75.7944 7.2 
z
" style="fill:#008000;opacity:0.46;"/>
   </g>
   <g id="patch_214">
    <path clip-path="url(#p6c88b78968)" d="M 76.3152 26.4 
L 76.9104 26.4 
L 76.9104 7.2 
L 76.3152 7.2 
z
" style="fill:#008000;opacity:0.46;"/>
   </g>
   <g id="patch_215">
    <path clip-path="url(#p6c88b78968)" d="M 76.9104 26.4 
L 77.58 26.4 
L 77.58 7.2 
L 76.9104 7.2 
z
" style="fill:#008000;opacity:0.01;"/>
   </g>
   <g id="patch_216">
    <path clip-path="url(#p6c88b78968)" d="M 77.58 26.4 
L 78.324 26.4 
L 78.324 7.2 
L 77.58 7.2 
z
" style="fill:#008000;opacity:0.46;"/>
   </g>
   <g id="patch_217">
    <path clip-path="url(#p6c88b78968)" d="M 78.324 26.4 
L 79.1424 26.4 
L 79.1424 7.2 
L 78.324 7.2 
z
" style="fill:#008000;opacity:0.01;"/>
   </g>
   <g id="patch_218">
    <path clip-path="url(#p6c88b78968)" d="M 79.1424 26.4 
L 80.0352 26.4 
L 80.0352 7.2 
L 79.1424 7.2 
z
" style="fill:#008000;opacity:0.01;"/>
   </g>
   <g id="patch_219">
    <path clip-path="url(#p6c88b78968)" d="M 80.0352 26.4 
L 81.0024 26.4 
L 81.0024 7.2 
L 80.0352 7.2 
z
" style="fill:#008000;opacity:0.46;"/>
   </g>
   <g id="patch_220">
    <path clip-path="url(#p6c88b78968)" d="M 81.0024 26.4 
L 82.044 26.4 
L 82.044 7.2 
L 81.0024 7.2 
z
" style="fill:#008000;opacity:0.46;"/>
   </g>
   <g id="patch_221">
    <path clip-path="url(#p6c88b78968)" d="M 82.044 26.4 
L 83.16 26.4 
L 83.16 7.2 
L 82.044 7.2 
z
" style="fill:#008000;opacity:0.01;"/>
   </g>
   <g id="patch_222">
    <path clip-path="url(#p6c88b78968)" d="M 83.16 26.4 
L 84.3504 26.4 
L 84.3504 7.2 
L 83.16 7.2 
z
" style="fill:#008000;opacity:0.01;"/>
   </g>
   <g id="patch_223">
    <path clip-path="url(#p6c88b78968)" d="M 84.3504 26.4 
L 85.6152 26.4 
L 85.6152 7.2 
L 84.3504 7.2 
z
" style="fill:#008000;opacity:0.01;"/>
   </g>
   <g id="patch_224">
    <path clip-path="url(#p6c88b78968)" d="M 85.6152 26.4 
L 86.9544 26.4 
L 86.9544 7.2 
L 85.6152 7.2 
z
" style="fill:#008000;opacity:0.01;"/>
   </g>
   <g id="patch_225">
    <path clip-path="url(#p6c88b78968)" d="M 86.9544 26.4 
L 88.368 26.4 
L 88.368 7.2 
L 86.9544 7.2 
z
" style="fill:#008000;opacity:0.01;"/>
   </g>
   <g id="patch_226">
    <path clip-path="url(#p6c88b78968)" d="M 88.368 26.4 
L 89.856 26.4 
L 89.856 7.2 
L 88.368 7.2 
z
" style="fill:#008000;opacity:0.01;"/>
   </g>
   <g id="patch_227">
    <path clip-path="url(#p6c88b78968)" d="M 89.856 26.4 
L 91.4184 26.4 
L 91.4184 7.2 
L 89.856 7.2 
z
" style="fill:#008000;opacity:0.01;"/>
   </g>
   <g id="patch_228">
    <path clip-path="url(#p6c88b78968)" d="M 91.4184 26.4 
L 93.0552 26.4 
L 93.0552 7.2 
L 91.4184 7.2 
z
" style="fill:#008000;opacity:0.46;"/>
   </g>
   <g id="patch_229">
    <path clip-path="url(#p6c88b78968)" d="M 93.0552 26.4 
L 94.7664 26.4 
L 94.7664 7.2 
L 93.0552 7.2 
z
" style="fill:#008000;opacity:0.01;"/>
   </g>
   <g id="patch_230">
    <path clip-path="url(#p6c88b78968)" d="M 94.7664 26.4 
L 96.552 26.4 
L 96.552 7.2 
L 94.7664 7.2 
z
" style="fill:#008000;opacity:0.46;"/>
   </g>
   <g id="patch_231">
    <path clip-path="url(#p6c88b78968)" d="M 96.552 26.4 
L 98.412 26.4 
L 98.412 7.2 
L 96.552 7.2 
z
" style="fill:#008000;opacity:0.01;"/>
   </g>
   <g id="patch_232">
    <path clip-path="url(#p6c88b78968)" d="M 98.412 26.4 
L 100.3464 26.4 
L 100.3464 7.2 
L 98.412 7.2 
z
" style="fill:#008000;opacity:0.01;"/>
   </g>
   <g id="patch_233">
    <path clip-path="url(#p6c88b78968)" d="M 100.3464 26.4 
L 102.3552 26.4 
L 102.3552 7.2 
L 100.3464 7.2 
z
" style="fill:#008000;opacity:0.01;"/>
   </g>
   <g id="patch_234">
    <path clip-path="url(#p6c88b78968)" d="M 102.3552 26.4 
L 104.4384 26.4 
L 104.4384 7.2 
L 102.3552 7.2 
z
" style="fill:#008000;opacity:0.46;"/>
   </g>
   <g id="patch_235">
    <path clip-path="url(#p6c88b78968)" d="M 104.4384 26.4 
L 106.596 26.4 
L 106.596 7.2 
L 104.4384 7.2 
z
" style="fill:#008000;opacity:0.01;"/>
   </g>
   <g id="patch_236">
    <path clip-path="url(#p6c88b78968)" d="M 106.596 26.4 
L 108.828 26.4 
L 108.828 7.2 
L 106.596 7.2 
z
" style="fill:#008000;opacity:0.01;"/>
   </g>
   <g id="patch_237">
    <path clip-path="url(#p6c88b78968)" d="M 108.828 26.4 
L 111.1344 26.4 
L 111.1344 7.2 
L 108.828 7.2 
z
" style="fill:#008000;opacity:0.46;"/>
   </g>
   <g id="patch_238">
    <path clip-path="url(#p6c88b78968)" d="M 111.1344 26.4 
L 113.5152 26.4 
L 113.5152 7.2 
L 111.1344 7.2 
z
" style="fill:#008000;opacity:0.01;"/>
   </g>
   <g id="patch_239">
    <path clip-path="url(#p6c88b78968)" d="M 113.5152 26.4 
L 115.9704 26.4 
L 115.9704 7.2 
L 113.5152 7.2 
z
" style="fill:#008000;opacity:0.46;"/>
   </g>
   <g id="patch_240">
    <path clip-path="url(#p6c88b78968)" d="M 115.9704 26.4 
L 118.5 26.4 
L 118.5 7.2 
L 115.9704 7.2 
z
" style="fill:#008000;opacity:0.01;"/>
   </g>
   <g id="patch_241">
    <path clip-path="url(#p6c88b78968)" d="M 118.5 26.4 
L 121.104 26.4 
L 121.104 7.2 
L 118.5 7.2 
z
" style="fill:#008000;opacity:0.01;"/>
   </g>
   <g id="patch_242">
    <path clip-path="url(#p6c88b78968)" d="M 121.104 26.4 
L 123.7824 26.4 
L 123.7824 7.2 
L 121.104 7.2 
z
" style="fill:#008000;opacity:0.91;"/>
   </g>
   <g id="patch_243">
    <path clip-path="url(#p6c88b78968)" d="M 123.7824 26.4 
L 126.5352 26.4 
L 126.5352 7.2 
L 123.7824 7.2 
z
" style="fill:#008000;opacity:0.01;"/>
   </g>
   <g id="patch_244">
    <path clip-path="url(#p6c88b78968)" d="M 126.5352 26.4 
L 129.3624 26.4 
L 129.3624 7.2 
L 126.5352 7.2 
z
" style="fill:#008000;opacity:0.01;"/>
   </g>
   <g id="patch_245">
    <path clip-path="url(#p6c88b78968)" d="M 129.3624 26.4 
L 132.264 26.4 
L 132.264 7.2 
L 129.3624 7.2 
z
" style="fill:#008000;opacity:0.01;"/>
   </g>
   <g id="patch_246">
    <path clip-path="url(#p6c88b78968)" d="M 132.264 26.4 
L 135.24 26.4 
L 135.24 7.2 
L 132.264 7.2 
z
" style="fill:#008000;opacity:0.01;"/>
   </g>
   <g id="patch_247">
    <path clip-path="url(#p6c88b78968)" d="M 135.24 26.4 
L 138.2904 26.4 
L 138.2904 7.2 
L 135.24 7.2 
z
" style="fill:#008000;opacity:0.01;"/>
   </g>
   <g id="patch_248">
    <path clip-path="url(#p6c88b78968)" d="M 138.2904 26.4 
L 141.4152 26.4 
L 141.4152 7.2 
L 138.2904 7.2 
z
" style="fill:#008000;opacity:0.91;"/>
   </g>
   <g id="patch_249">
    <path clip-path="url(#p6c88b78968)" d="M 141.4152 26.4 
L 144.6144 26.4 
L 144.6144 7.2 
L 141.4152 7.2 
z
" style="fill:#008000;opacity:0.01;"/>
   </g>
   <g id="patch_250">
    <path clip-path="url(#p6c88b78968)" d="M 144.6144 26.4 
L 147.888 26.4 
L 147.888 7.2 
L 144.6144 7.2 
z
" style="fill:#008000;opacity:0.46;"/>
   </g>
   <g id="patch_251">
    <path clip-path="url(#p6c88b78968)" d="M 147.888 26.4 
L 151.236 26.4 
L 151.236 7.2 
L 147.888 7.2 
z
" style="fill:#008000;opacity:0.01;"/>
   </g>
   <g id="patch_252">
    <path clip-path="url(#p6c88b78968)" d="M 151.236 26.4 
L 154.6584 26.4 
L 154.6584 7.2 
L 151.236 7.2 
z
" style="fill:#008000;opacity:0.01;"/>
   </g>
   <g id="patch_253">
    <path clip-path="url(#p6c88b78968)" d="M 154.6584 26.4 
L 158.1552 26.4 
L 158.1552 7.2 
L 154.6584 7.2 
z
" style="fill:#008000;opacity:0.01;"/>
   </g>
   <g id="patch_254">
    <path clip-path="url(#p6c88b78968)" d="M 158.1552 26.4 
L 161.7264 26.4 
L 161.7264 7.2 
L 158.1552 7.2 
z
" style="fill:#008000;opacity:0.01;"/>
   </g>
   <g id="patch_255">
    <path clip-path="url(#p6c88b78968)" d="M 161.7264 26.4 
L 165.372 26.4 
L 165.372 7.2 
L 161.7264 7.2 
z
" style="fill:#008000;opacity:0.01;"/>
   </g>
   <g id="patch_256">
    <path clip-path="url(#p6c88b78968)" d="M 165.372 26.4 
L 169.092 26.4 
L 169.092 7.2 
L 165.372 7.2 
z
" style="fill:#008000;opacity:0.01;"/>
   </g>
   <g id="patch_257">
    <path clip-path="url(#p6c88b78968)" d="M 169.092 26.4 
L 172.8864 26.4 
L 172.8864 7.2 
L 169.092 7.2 
z
" style="fill:#008000;opacity:0.01;"/>
   </g>
   <g id="patch_258">
    <path clip-path="url(#p6c88b78968)" d="M 172.8864 26.4 
L 176.7552 26.4 
L 176.7552 7.2 
L 172.8864 7.2 
z
" style="fill:#008000;opacity:0.01;"/>
   </g>
   <g id="patch_259">
    <path clip-path="url(#p6c88b78968)" d="M 176.7552 26.4 
L 180.6984 26.4 
L 180.6984 7.2 
L 176.7552 7.2 
z
" style="fill:#008000;opacity:0.46;"/>
   </g>
   <g id="patch_260">
    <path clip-path="url(#p6c88b78968)" d="M 180.6984 26.4 
L 184.716 26.4 
L 184.716 7.2 
L 180.6984 7.2 
z
" style="fill:#008000;opacity:0.01;"/>
   </g>
   <g id="patch_261">
    <path clip-path="url(#p6c88b78968)" d="M 184.716 26.4 
L 188.808 26.4 
L 188.808 7.2 
L 184.716 7.2 
z
" style="fill:#008000;opacity:0.01;"/>
   </g>
   <g id="patch_262">
    <path clip-path="url(#p6c88b78968)" d="M 188.808 26.4 
L 192.9744 26.4 
L 192.9744 7.2 
L 188.808 7.2 
z
" style="fill:#008000;opacity:0.01;"/>
   </g>
   <g id="patch_263">
    <path clip-path="url(#p6c88b78968)" d="M 192.9744 26.4 
L 197.2152 26.4 
L 197.2152 7.2 
L 192.9744 7.2 
z
" style="fill:#008000;opacity:0.01;"/>
   </g>
   <g id="patch_264">
    <path clip-path="url(#p6c88b78968)" d="M 197.2152 26.4 
L 201.5304 26.4 
L 201.5304 7.2 
L 197.2152 7.2 
z
" style="fill:#008000;opacity:0.01;"/>
   </g>
   <g id="patch_265">
    <path clip-path="url(#p6c88b78968)" d="M 201.5304 26.4 
L 205.92 26.4 
L 205.92 7.2 
L 201.5304 7.2 
z
" style="fill:#008000;opacity:0.01;"/>
   </g>
   <g id="patch_266">
    <path clip-path="url(#p6c88b78968)" d="M 205.92 26.4 
L 210.384 26.4 
L 210.384 7.2 
L 205.92 7.2 
z
" style="fill:#008000;opacity:0.01;"/>
   </g>
   <g id="patch_267">
    <path clip-path="url(#p6c88b78968)" d="M 210.384 26.4 
L 214.9224 26.4 
L 214.9224 7.2 
L 210.384 7.2 
z
" style="fill:#008000;opacity:0.01;"/>
   </g>
   <g id="patch_268">
    <path clip-path="url(#p6c88b78968)" d="M 214.9224 26.4 
L 219.5352 26.4 
L 219.5352 7.2 
L 214.9224 7.2 
z
" style="fill:#008000;opacity:0.01;"/>
   </g>
   <g id="patch_269">
    <path clip-path="url(#p6c88b78968)" d="M 219.5352 26.4 
L 224.2224 26.4 
L 224.2224 7.2 
L 219.5352 7.2 
z
" style="fill:#008000;opacity:0.01;"/>
   </g>
   <g id="patch_270">
    <path clip-path="url(#p6c88b78968)" d="M 224.2224 26.4 
L 228.984 26.4 
L 228.984 7.2 
L 224.2224 7.2 
z
" style="fill:#008000;opacity:0.01;"/>
   </g>
   <g id="patch_271">
    <path clip-path="url(#p6c88b78968)" d="M 228.984 26.4 
L 233.82 26.4 
L 233.82 7.2 
L 228.984 7.2 
z
" style="fill:#008000;opacity:0.01;"/>
   </g>
   <g id="patch_272">
    <path clip-path="url(#p6c88b78968)" d="M 233.82 26.4 
L 238.7304 26.4 
L 238.7304 7.2 
L 233.82 7.2 
z
" style="fill:#008000;opacity:0.01;"/>
   </g>
   <g id="patch_273">
    <path clip-path="url(#p6c88b78968)" d="M 238.7304 26.4 
L 243.7152 26.4 
L 243.7152 7.2 
L 238.7304 7.2 
z
" style="fill:#008000;opacity:0.01;"/>
   </g>
   <g id="patch_274">
    <path clip-path="url(#p6c88b78968)" d="M 243.7152 26.4 
L 248.7744 26.4 
L 248.7744 7.2 
L 243.7152 7.2 
z
" style="fill:#008000;opacity:0.01;"/>
   </g>
   <g id="patch_275">
    <path clip-path="url(#p6c88b78968)" d="M 248.7744 26.4 
L 253.908 26.4 
L 253.908 7.2 
L 248.7744 7.2 
z
" style="fill:#008000;opacity:0.91;"/>
   </g>
   <g id="patch_276">
    <path clip-path="url(#p6c88b78968)" d="M 253.908 26.4 
L 259.116 26.4 
L 259.116 7.2 
L 253.908 7.2 
z
" style="fill:#008000;opacity:0.01;"/>
   </g>
   <g id="patch_277">
    <path clip-path="url(#p6c88b78968)" d="M 259.116 26.4 
L 264.3984 26.4 
L 264.3984 7.2 
L 259.116 7.2 
z
" style="fill:#008000;opacity:0.01;"/>
   </g>
   <g id="patch_278">
    <path clip-path="url(#p6c88b78968)" d="M 264.3984 26.4 
L 269.7552 26.4 
L 269.7552 7.2 
L 264.3984 7.2 
z
" style="fill:#008000;opacity:0.01;"/>
   </g>
   <g id="patch_279">
    <path clip-path="url(#p6c88b78968)" d="M 269.7552 26.4 
L 275.1864 26.4 
L 275.1864 7.2 
L 269.7552 7.2 
z
" style="fill:#008000;opacity:0.01;"/>
   </g>
   <g id="patch_280">
    <path clip-path="url(#p6c88b78968)" d="M 275.1864 26.4 
L 280.692 26.4 
L 280.692 7.2 
L 275.1864 7.2 
z
" style="fill:#008000;opacity:0.01;"/>
   </g>
   <g id="patch_281">
    <path clip-path="url(#p6c88b78968)" d="M 280.692 26.4 
L 286.272 26.4 
L 286.272 7.2 
L 280.692 7.2 
z
" style="fill:#008000;opacity:0.01;"/>
   </g>
   <g id="patch_282">
    <path clip-path="url(#p6c88b78968)" d="M 286.272 26.4 
L 291.9264 26.4 
L 291.9264 7.2 
L 286.272 7.2 
z
" style="fill:#008000;opacity:0.01;"/>
   </g>
   <g id="patch_283">
    <path clip-path="url(#p6c88b78968)" d="M 291.9264 26.4 
L 297.6552 26.4 
L 297.6552 7.2 
L 291.9264 7.2 
z
" style="fill:#008000;opacity:0.01;"/>
   </g>
   <g id="patch_284">
    <path clip-path="url(#p6c88b78968)" d="M 297.6552 26.4 
L 303.4584 26.4 
L 303.4584 7.2 
L 297.6552 7.2 
z
" style="fill:#008000;opacity:0.01;"/>
   </g>
   <g id="patch_285">
    <path clip-path="url(#p6c88b78968)" d="M 303.4584 26.4 
L 309.336 26.4 
L 309.336 7.2 
L 303.4584 7.2 
z
" style="fill:#008000;opacity:0.01;"/>
   </g>
   <g id="patch_286">
    <path clip-path="url(#p6c88b78968)" d="M 309.336 26.4 
L 315.288 26.4 
L 315.288 7.2 
L 309.336 7.2 
z
" style="fill:#008000;opacity:0.01;"/>
   </g>
   <g id="patch_287">
    <path clip-path="url(#p6c88b78968)" d="M 315.288 26.4 
L 321.3144 26.4 
L 321.3144 7.2 
L 315.288 7.2 
z
" style="fill:#008000;opacity:0.01;"/>
   </g>
   <g id="patch_288">
    <path clip-path="url(#p6c88b78968)" d="M 321.3144 26.4 
L 327.4152 26.4 
L 327.4152 7.2 
L 321.3144 7.2 
z
" style="fill:#008000;opacity:0.01;"/>
   </g>
   <g id="patch_289">
    <path clip-path="url(#p6c88b78968)" d="M 327.4152 26.4 
L 333.5904 26.4 
L 333.5904 7.2 
L 327.4152 7.2 
z
" style="fill:#008000;opacity:0.01;"/>
   </g>
   <g id="patch_290">
    <path clip-path="url(#p6c88b78968)" d="M 333.5904 26.4 
L 339.84 26.4 
L 339.84 7.2 
L 333.5904 7.2 
z
" style="fill:#008000;opacity:0.01;"/>
   </g>
   <g id="patch_291">
    <path clip-path="url(#p6c88b78968)" d="M 339.84 26.4 
L 346.164 26.4 
L 346.164 7.2 
L 339.84 7.2 
z
" style="fill:#008000;opacity:0.01;"/>
   </g>
   <g id="patch_292">
    <path clip-path="url(#p6c88b78968)" d="M 346.164 26.4 
L 352.5624 26.4 
L 352.5624 7.2 
L 346.164 7.2 
z
" style="fill:#008000;opacity:0.01;"/>
   </g>
   <g id="patch_293">
    <path clip-path="url(#p6c88b78968)" d="M 352.5624 26.4 
L 359.0352 26.4 
L 359.0352 7.2 
L 352.5624 7.2 
z
" style="fill:#008000;opacity:0.01;"/>
   </g>
   <g id="patch_294">
    <path clip-path="url(#p6c88b78968)" d="M 359.0352 26.4 
L 365.5824 26.4 
L 365.5824 7.2 
L 359.0352 7.2 
z
" style="fill:#008000;opacity:0.01;"/>
   </g>
   <g id="patch_295">
    <path clip-path="url(#p6c88b78968)" d="M 365.5824 26.4 
L 372.204 26.4 
L 372.204 7.2 
L 365.5824 7.2 
z
" style="fill:#008000;opacity:0.01;"/>
   </g>
   <g id="patch_296">
    <path clip-path="url(#p6c88b78968)" d="M 372.204 26.4 
L 378.9 26.4 
L 378.9 7.2 
L 372.204 7.2 
z
" style="fill:#008000;opacity:0.01;"/>
   </g>
   <g id="patch_297">
    <path clip-path="url(#p6c88b78968)" d="M 378.9 26.4 
L 385.6704 26.4 
L 385.6704 7.2 
L 378.9 7.2 
z
" style="fill:#008000;opacity:0.01;"/>
   </g>
   <g id="patch_298">
    <path clip-path="url(#p6c88b78968)" d="M 385.6704 26.4 
L 392.5152 26.4 
L 392.5152 7.2 
L 385.6704 7.2 
z
" style="fill:#008000;opacity:0.01;"/>
   </g>
   <g id="patch_299">
    <path clip-path="url(#p6c88b78968)" d="M 392.5152 26.4 
L 399.4344 26.4 
L 399.4344 7.2 
L 392.5152 7.2 
z
" style="fill:#008000;opacity:0.01;"/>
   </g>
   <g id="patch_300">
    <path clip-path="url(#p6c88b78968)" d="M 399.4344 26.4 
L 406.428 26.4 
L 406.428 7.2 
L 399.4344 7.2 
z
" style="fill:#008000;opacity:0.01;"/>
   </g>
   <g id="patch_301">
    <path clip-path="url(#p6c88b78968)" d="M 406.428 26.4 
L 413.496 26.4 
L 413.496 7.2 
L 406.428 7.2 
z
" style="fill:#008000;opacity:0.01;"/>
   </g>
   <g id="patch_302">
    <path clip-path="url(#p6c88b78968)" d="M 413.496 26.4 
L 420.6384 26.4 
L 420.6384 7.2 
L 413.496 7.2 
z
" style="fill:#008000;opacity:0.01;"/>
   </g>
   <g id="patch_303">
    <path clip-path="url(#p6c88b78968)" d="M 420.6384 26.4 
L 427.8552 26.4 
L 427.8552 7.2 
L 420.6384 7.2 
z
" style="fill:#008000;opacity:0.01;"/>
   </g>
   <g id="patch_304">
    <path clip-path="url(#p6c88b78968)" d="M 427.8552 26.4 
L 435.1464 26.4 
L 435.1464 7.2 
L 427.8552 7.2 
z
" style="fill:#008000;opacity:0.01;"/>
   </g>
   <g id="patch_305">
    <path clip-path="url(#p6c88b78968)" d="M 435.1464 26.4 
L 442.512 26.4 
L 442.512 7.2 
L 435.1464 7.2 
z
" style="fill:#008000;opacity:0.01;"/>
   </g>
   <g id="patch_306">
    <path clip-path="url(#p6c88b78968)" d="M 442.512 26.4 
L 449.952 26.4 
L 449.952 7.2 
L 442.512 7.2 
z
" style="fill:#008000;opacity:0.01;"/>
   </g>
   <g id="patch_307">
    <path clip-path="url(#p6c88b78968)" d="M 449.952 26.4 
L 451.44 26.4 
L 451.44 7.2 
L 449.952 7.2 
z
"/>
   </g>
   <g id="matplotlib.axis_1">
    <g id="ytick_1">
     <g id="line2d_1">
      <defs>
       <path d="M 0 0 
L 0 0 
" id="mb119db5de7" style="stroke:#000000;stroke-width:0.5;"/>
      </defs>
      <g>
       <use style="stroke:#000000;stroke-width:0.5;" x="72.0" xlink:href="#mb119db5de7" y="55.2"/>
      </g>
     </g>
     <g id="line2d_2">
      <g>
       <use style="stroke:#000000;stroke-width:0.5;" x="518.4" xlink:href="#mb119db5de7" y="55.2"/>
      </g>
     </g>
     <g id="text_1">
      <!-- stopping -->
      <defs>
       <path d="M 54.890625 33.015625 
L 54.890625 0 
L 45.90625 0 
L 45.90625 32.71875 
Q 45.90625 40.484375 42.875 44.328125 
Q 39.84375 48.1875 33.796875 48.1875 
Q 26.515625 48.1875 22.3125 43.546875 
Q 18.109375 38.921875 18.109375 30.90625 
L 18.109375 0 
L 9.078125 0 
L 9.078125 54.6875 
L 18.109375 54.6875 
L 18.109375 46.1875 
Q 21.34375 51.125 25.703125 53.5625 
Q 30.078125 56 35.796875 56 
Q 45.21875 56 50.046875 50.171875 
Q 54.890625 44.34375 54.890625 33.015625 
" id="BitstreamVeraSans-Roman-6e"/>
       <path d="M 30.609375 48.390625 
Q 23.390625 48.390625 19.1875 42.75 
Q 14.984375 37.109375 14.984375 27.296875 
Q 14.984375 17.484375 19.15625 11.84375 
Q 23.34375 6.203125 30.609375 6.203125 
Q 37.796875 6.203125 41.984375 11.859375 
Q 46.1875 17.53125 46.1875 27.296875 
Q 46.1875 37.015625 41.984375 42.703125 
Q 37.796875 48.390625 30.609375 48.390625 
M 30.609375 56 
Q 42.328125 56 49.015625 48.375 
Q 55.71875 40.765625 55.71875 27.296875 
Q 55.71875 13.875 49.015625 6.21875 
Q 42.328125 -1.421875 30.609375 -1.421875 
Q 18.84375 -1.421875 12.171875 6.21875 
Q 5.515625 13.875 5.515625 27.296875 
Q 5.515625 40.765625 12.171875 48.375 
Q 18.84375 56 30.609375 56 
" id="BitstreamVeraSans-Roman-6f"/>
       <path d="M 9.421875 54.6875 
L 18.40625 54.6875 
L 18.40625 0 
L 9.421875 0 
z
M 9.421875 75.984375 
L 18.40625 75.984375 
L 18.40625 64.59375 
L 9.421875 64.59375 
z
" id="BitstreamVeraSans-Roman-69"/>
       <path d="M 45.40625 27.984375 
Q 45.40625 37.75 41.375 43.109375 
Q 37.359375 48.484375 30.078125 48.484375 
Q 22.859375 48.484375 18.828125 43.109375 
Q 14.796875 37.75 14.796875 27.984375 
Q 14.796875 18.265625 18.828125 12.890625 
Q 22.859375 7.515625 30.078125 7.515625 
Q 37.359375 7.515625 41.375 12.890625 
Q 45.40625 18.265625 45.40625 27.984375 
M 54.390625 6.78125 
Q 54.390625 -7.171875 48.1875 -13.984375 
Q 42 -20.796875 29.203125 -20.796875 
Q 24.46875 -20.796875 20.265625 -20.09375 
Q 16.0625 -19.390625 12.109375 -17.921875 
L 12.109375 -9.1875 
Q 16.0625 -11.328125 19.921875 -12.34375 
Q 23.78125 -13.375 27.78125 -13.375 
Q 36.625 -13.375 41.015625 -8.765625 
Q 45.40625 -4.15625 45.40625 5.171875 
L 45.40625 9.625 
Q 42.625 4.78125 38.28125 2.390625 
Q 33.9375 0 27.875 0 
Q 17.828125 0 11.671875 7.65625 
Q 5.515625 15.328125 5.515625 27.984375 
Q 5.515625 40.671875 11.671875 48.328125 
Q 17.828125 56 27.875 56 
Q 33.9375 56 38.28125 53.609375 
Q 42.625 51.21875 45.40625 46.390625 
L 45.40625 54.6875 
L 54.390625 54.6875 
z
" id="BitstreamVeraSans-Roman-67"/>
       <path d="M 18.3125 70.21875 
L 18.3125 54.6875 
L 36.8125 54.6875 
L 36.8125 47.703125 
L 18.3125 47.703125 
L 18.3125 18.015625 
Q 18.3125 11.328125 20.140625 9.421875 
Q 21.96875 7.515625 27.59375 7.515625 
L 36.8125 7.515625 
L 36.8125 0 
L 27.59375 0 
Q 17.1875 0 13.234375 3.875 
Q 9.28125 7.765625 9.28125 18.015625 
L 9.28125 47.703125 
L 2.6875 47.703125 
L 2.6875 54.6875 
L 9.28125 54.6875 
L 9.28125 70.21875 
z
" id="BitstreamVeraSans-Roman-74"/>
       <path d="M 44.28125 53.078125 
L 44.28125 44.578125 
Q 40.484375 46.53125 36.375 47.5 
Q 32.28125 48.484375 27.875 48.484375 
Q 21.1875 48.484375 17.84375 46.4375 
Q 14.5 44.390625 14.5 40.28125 
Q 14.5 37.15625 16.890625 35.375 
Q 19.28125 33.59375 26.515625 31.984375 
L 29.59375 31.296875 
Q 39.15625 29.25 43.1875 25.515625 
Q 47.21875 21.78125 47.21875 15.09375 
Q 47.21875 7.46875 41.1875 3.015625 
Q 35.15625 -1.421875 24.609375 -1.421875 
Q 20.21875 -1.421875 15.453125 -0.5625 
Q 10.6875 0.296875 5.421875 2 
L 5.421875 11.28125 
Q 10.40625 8.6875 15.234375 7.390625 
Q 20.0625 6.109375 24.8125 6.109375 
Q 31.15625 6.109375 34.5625 8.28125 
Q 37.984375 10.453125 37.984375 14.40625 
Q 37.984375 18.0625 35.515625 20.015625 
Q 33.0625 21.96875 24.703125 23.78125 
L 21.578125 24.515625 
Q 13.234375 26.265625 9.515625 29.90625 
Q 5.8125 33.546875 5.8125 39.890625 
Q 5.8125 47.609375 11.28125 51.796875 
Q 16.75 56 26.8125 56 
Q 31.78125 56 36.171875 55.265625 
Q 40.578125 54.546875 44.28125 53.078125 
" id="BitstreamVeraSans-Roman-73"/>
       <path d="M 18.109375 8.203125 
L 18.109375 -20.796875 
L 9.078125 -20.796875 
L 9.078125 54.6875 
L 18.109375 54.6875 
L 18.109375 46.390625 
Q 20.953125 51.265625 25.265625 53.625 
Q 29.59375 56 35.59375 56 
Q 45.5625 56 51.78125 48.09375 
Q 58.015625 40.1875 58.015625 27.296875 
Q 58.015625 14.40625 51.78125 6.484375 
Q 45.5625 -1.421875 35.59375 -1.421875 
Q 29.59375 -1.421875 25.265625 0.953125 
Q 20.953125 3.328125 18.109375 8.203125 
M 48.6875 27.296875 
Q 48.6875 37.203125 44.609375 42.84375 
Q 40.53125 48.484375 33.40625 48.484375 
Q 26.265625 48.484375 22.1875 42.84375 
Q 18.109375 37.203125 18.109375 27.296875 
Q 18.109375 17.390625 22.1875 11.75 
Q 26.265625 6.109375 33.40625 6.109375 
Q 40.53125 6.109375 44.609375 11.75 
Q 48.6875 17.390625 48.6875 27.296875 
" id="BitstreamVeraSans-Roman-70"/>
      </defs>
      <g transform="translate(24.590625 57.959375)scale(0.1 -0.1)">
       <use xlink:href="#BitstreamVeraSans-Roman-73"/>
       <use x="52.099609375" xlink:href="#BitstreamVeraSans-Roman-74"/>
       <use x="91.30859375" xlink:href="#BitstreamVeraSans-Roman-6f"/>
       <use x="152.490234375" xlink:href="#BitstreamVeraSans-Roman-70"/>
       <use x="215.966796875" xlink:href="#BitstreamVeraSans-Roman-70"/>
       <use x="279.443359375" xlink:href="#BitstreamVeraSans-Roman-69"/>
       <use x="307.2265625" xlink:href="#BitstreamVeraSans-Roman-6e"/>
       <use x="370.60546875" xlink:href="#BitstreamVeraSans-Roman-67"/>
      </g>
     </g>
    </g>
    <g id="ytick_2">
     <g id="line2d_3">
      <g>
       <use style="stroke:#000000;stroke-width:0.5;" x="72.0" xlink:href="#mb119db5de7" y="36.0"/>
      </g>
     </g>
     <g id="line2d_4">
      <g>
       <use style="stroke:#000000;stroke-width:0.5;" x="518.4" xlink:href="#mb119db5de7" y="36.0"/>
      </g>
     </g>
     <g id="text_2">
      <!-- ongoing -->
      <g transform="translate(27.6125 38.759375)scale(0.1 -0.1)">
       <use xlink:href="#BitstreamVeraSans-Roman-6f"/>
       <use x="61.181640625" xlink:href="#BitstreamVeraSans-Roman-6e"/>
       <use x="124.560546875" xlink:href="#BitstreamVeraSans-Roman-67"/>
       <use x="188.037109375" xlink:href="#BitstreamVeraSans-Roman-6f"/>
       <use x="249.21875" xlink:href="#BitstreamVeraSans-Roman-69"/>
       <use x="277.001953125" xlink:href="#BitstreamVeraSans-Roman-6e"/>
       <use x="340.380859375" xlink:href="#BitstreamVeraSans-Roman-67"/>
      </g>
     </g>
    </g>
    <g id="ytick_3">
     <g id="line2d_5">
      <g>
       <use style="stroke:#000000;stroke-width:0.5;" x="72.0" xlink:href="#mb119db5de7" y="16.8"/>
      </g>
     </g>
     <g id="line2d_6">
      <g>
       <use style="stroke:#000000;stroke-width:0.5;" x="518.4" xlink:href="#mb119db5de7" y="16.8"/>
      </g>
     </g>
     <g id="text_3">
      <!-- starting -->
      <defs>
       <path d="M 41.109375 46.296875 
Q 39.59375 47.171875 37.8125 47.578125 
Q 36.03125 48 33.890625 48 
Q 26.265625 48 22.1875 43.046875 
Q 18.109375 38.09375 18.109375 28.8125 
L 18.109375 0 
L 9.078125 0 
L 9.078125 54.6875 
L 18.109375 54.6875 
L 18.109375 46.1875 
Q 20.953125 51.171875 25.484375 53.578125 
Q 30.03125 56 36.53125 56 
Q 37.453125 56 38.578125 55.875 
Q 39.703125 55.765625 41.0625 55.515625 
z
" id="BitstreamVeraSans-Roman-72"/>
       <path d="M 34.28125 27.484375 
Q 23.390625 27.484375 19.1875 25 
Q 14.984375 22.515625 14.984375 16.5 
Q 14.984375 11.71875 18.140625 8.90625 
Q 21.296875 6.109375 26.703125 6.109375 
Q 34.1875 6.109375 38.703125 11.40625 
Q 43.21875 16.703125 43.21875 25.484375 
L 43.21875 27.484375 
z
M 52.203125 31.203125 
L 52.203125 0 
L 43.21875 0 
L 43.21875 8.296875 
Q 40.140625 3.328125 35.546875 0.953125 
Q 30.953125 -1.421875 24.3125 -1.421875 
Q 15.921875 -1.421875 10.953125 3.296875 
Q 6 8.015625 6 15.921875 
Q 6 25.140625 12.171875 29.828125 
Q 18.359375 34.515625 30.609375 34.515625 
L 43.21875 34.515625 
L 43.21875 35.40625 
Q 43.21875 41.609375 39.140625 45 
Q 35.0625 48.390625 27.6875 48.390625 
Q 23 48.390625 18.546875 47.265625 
Q 14.109375 46.140625 10.015625 43.890625 
L 10.015625 52.203125 
Q 14.9375 54.109375 19.578125 55.046875 
Q 24.21875 56 28.609375 56 
Q 40.484375 56 46.34375 49.84375 
Q 52.203125 43.703125 52.203125 31.203125 
" id="BitstreamVeraSans-Roman-61"/>
      </defs>
      <g transform="translate(29.246875 19.559375)scale(0.1 -0.1)">
       <use xlink:href="#BitstreamVeraSans-Roman-73"/>
       <use x="52.099609375" xlink:href="#BitstreamVeraSans-Roman-74"/>
       <use x="91.30859375" xlink:href="#BitstreamVeraSans-Roman-61"/>
       <use x="152.587890625" xlink:href="#BitstreamVeraSans-Roman-72"/>
       <use x="193.701171875" xlink:href="#BitstreamVeraSans-Roman-74"/>
       <use x="232.91015625" xlink:href="#BitstreamVeraSans-Roman-69"/>
       <use x="260.693359375" xlink:href="#BitstreamVeraSans-Roman-6e"/>
       <use x="324.072265625" xlink:href="#BitstreamVeraSans-Roman-67"/>
      </g>
     </g>
    </g>
   </g>
  </g>
 </g>
 <defs>
  <clipPath id="p6c88b78968">
   <rect height="57.6" width="446.4" x="72.0" y="7.2"/>
  </clipPath>
 </defs>
</svg>
